<svg width="93" height="93" viewBox="0 0 93 93" fill="none" xmlns="http://www.w3.org/2000/svg">
<g clip-path="url(#clip0_2_23)">
<path d="M46.5 0C37.3032 0 28.3129 2.72718 20.666 7.83666C13.0191 12.9461 7.05908 20.2085 3.53961 28.7052C0.0201323 37.202 -0.900723 46.5516 0.89349 55.5717C2.6877 64.5918 7.1164 72.8773 13.6195 79.3805C20.1227 85.8836 28.4082 90.3123 37.4283 92.1065C46.4484 93.9007 55.798 92.9799 64.2948 89.4604C72.7915 85.9409 80.0539 79.9809 85.1633 72.334C90.2728 64.6871 93 55.6968 93 46.5C93 34.1674 88.1009 22.34 79.3805 13.6195C70.66 4.89909 58.8326 0 46.5 0V0ZM48.495 88.911V80.732C48.5144 80.4581 48.4772 80.1832 48.3857 79.9243C48.2943 79.6655 48.1505 79.4282 47.9633 79.2273C47.7762 79.0265 47.5497 78.8663 47.2979 78.7567C47.0462 78.6472 46.7746 78.5907 46.5 78.5907C46.2255 78.5907 45.9538 78.6472 45.7021 78.7567C45.4503 78.8663 45.2238 79.0265 45.0367 79.2273C44.8495 79.4282 44.7057 79.6655 44.6143 79.9243C44.5228 80.1832 44.4856 80.4581 44.505 80.732V88.911C33.9494 88.4073 23.9603 83.9881 16.4873 76.5161C9.01443 69.0441 4.59406 59.0556 4.08901 48.5H12.268C12.7971 48.5 13.3045 48.2898 13.6787 47.9157C14.0528 47.5415 14.263 47.0341 14.263 46.505C14.263 45.9759 14.0528 45.4685 13.6787 45.0943C13.3045 44.7202 12.7971 44.51 12.268 44.51H4.08901C4.59164 33.9527 9.01095 23.9616 16.4841 16.4876C23.9573 9.01349 33.9477 4.59294 44.505 4.089V12.268C44.505 12.7971 44.7152 13.3045 45.0893 13.6787C45.4635 14.0528 45.9709 14.263 46.5 14.263C47.0291 14.263 47.5366 14.0528 47.9107 13.6787C48.2848 13.3045 48.495 12.7971 48.495 12.268V4.089C59.0515 4.59285 69.0413 9.01268 76.5143 16.4857C83.9873 23.9588 88.4072 33.9486 88.911 44.505H80.732C80.4581 44.4856 80.1832 44.5228 79.9244 44.6143C79.6655 44.7057 79.4282 44.8495 79.2273 45.0367C79.0265 45.2238 78.8663 45.4503 78.7567 45.7021C78.6472 45.9538 78.5907 46.2254 78.5907 46.5C78.5907 46.7746 78.6472 47.0462 78.7567 47.2979C78.8663 47.5497 79.0265 47.7762 79.2273 47.9633C79.4282 48.1505 79.6655 48.2943 79.9244 48.3857C80.1832 48.4772 80.4581 48.5144 80.732 48.495H88.932C88.4277 59.0549 84.005 69.0475 76.5275 76.5211C69.0501 83.9946 59.0552 88.4122 48.495 88.911V88.911Z" fill="#00B1E3"/>
<path d="M67.546 65.052L48.495 45.682V25.554C48.5144 25.2801 48.4772 25.0052 48.3857 24.7463C48.2943 24.4875 48.1505 24.2502 47.9633 24.0493C47.7762 23.8485 47.5497 23.6883 47.2979 23.5787C47.0462 23.4692 46.7745 23.4127 46.5 23.4127C46.2254 23.4127 45.9538 23.4692 45.7021 23.5787C45.4503 23.6883 45.2238 23.8485 45.0367 24.0493C44.8495 24.2502 44.7057 24.4875 44.6143 24.7463C44.5228 25.0052 44.4856 25.2801 44.505 25.554V46.5C44.5067 47.0244 44.7142 47.5272 45.083 47.9L64.693 67.845C65.0708 68.1865 65.5647 68.3711 66.0739 68.3609C66.5831 68.3508 67.0693 68.1468 67.4333 67.7905C67.7972 67.4342 68.0115 66.9525 68.0325 66.4436C68.0534 65.9347 67.8794 65.437 67.546 65.052V65.052Z" fill="#00B1E3"/>
</g>
<defs>
<clipPath id="clip0_2_23">
<rect width="93" height="93" fill="white"/>
</clipPath>
</defs>
</svg>
