<svg width="123" height="93" viewBox="0 0 123 93" fill="none" xmlns="http://www.w3.org/2000/svg">
<path d="M79.054 37.526V18.926C79.054 8.491 69.811 0 58.447 0C47.083 0 37.838 8.491 37.838 18.928V37.528H23V93H95.54V37.526H79.054ZM41.135 18.926C41.135 10.288 48.9 3.261 58.446 3.261C67.992 3.261 75.757 10.289 75.757 18.926V37.526H41.135V18.926ZM92.247 89.737H26.299V83.211H92.247V89.737ZM26.299 79.947V40.79H92.247V79.947H26.299Z" fill="#00B1E3"/>
<path d="M59.27 50.579C57.5312 50.5718 55.8604 51.2545 54.6241 52.4772C53.3878 53.7 52.6869 55.3632 52.675 57.102V66.893C52.6643 67.7658 52.8269 68.6321 53.1535 69.4416C53.48 70.2511 53.9641 70.9878 54.5775 71.6088C55.1909 72.2298 55.9215 72.7229 56.727 73.0594C57.5324 73.3959 58.3966 73.5692 59.2695 73.5692C60.1424 73.5692 61.0066 73.3959 61.812 73.0594C62.6175 72.7229 63.3481 72.2298 63.9615 71.6088C64.5749 70.9878 65.059 70.2511 65.3855 69.4416C65.7121 68.6321 65.8747 67.7658 65.864 66.893V57.102C65.8521 55.3632 65.1512 53.7 63.9149 52.4772C62.6786 51.2545 61.0078 50.5718 59.269 50.579H59.27ZM62.57 66.895C62.57 67.7702 62.2223 68.6096 61.6035 69.2285C60.9846 69.8473 60.1452 70.195 59.27 70.195C58.3948 70.195 57.5554 69.8473 56.9365 69.2285C56.3177 68.6096 55.97 67.7702 55.97 66.895V57.102C55.97 56.2268 56.3177 55.3874 56.9365 54.7685C57.5554 54.1497 58.3948 53.802 59.27 53.802C60.1452 53.802 60.9846 54.1497 61.6035 54.7685C62.2223 55.3874 62.57 56.2268 62.57 57.102V66.895Z" fill="#00B1E3"/>
</svg>
