<svg width="120" height="93" viewBox="0 0 120 93" fill="none" xmlns="http://www.w3.org/2000/svg">
<path d="M118.985 47.801C118.806 47.4984 118.553 47.2457 118.251 47.066H118.377L41.4 0.285002C41.081 0.100099 40.7188 0.00272369 40.35 0.00272369C39.9813 0.00272369 39.619 0.100099 39.3 0.285002L1.171 20.653C0.8377 20.8189 0.554495 21.0704 0.350405 21.3818C0.146315 21.6932 0.0286796 22.0533 0.00954936 22.4251C-0.00958089 22.7969 0.0704827 23.1671 0.241537 23.4978C0.412592 23.8285 0.668487 24.1078 0.983004 24.307L78.064 72.226C78.3837 72.4245 78.751 72.5331 79.1272 72.5405C79.5035 72.5479 79.8747 72.4538 80.202 72.268L118.248 50.679C118.485 50.5385 118.693 50.3526 118.858 50.1319C119.024 49.9112 119.144 49.66 119.213 49.3927C119.281 49.1254 119.296 48.8473 119.257 48.5742C119.218 48.3011 119.126 48.0383 118.985 47.801V47.801ZM79.302 68.072L6.349 22.646L40.247 4.485L113.073 48.818L79.302 68.072Z" fill="#00B1E3"/>
<path d="M119.028 58.033C118.891 57.793 118.708 57.5825 118.489 57.4135C118.27 57.2445 118.02 57.1204 117.753 57.0482C117.487 56.976 117.208 56.9572 116.934 56.9928C116.66 57.0285 116.395 57.1179 116.156 57.256H116.282L79.323 78.256L3.246 30.942C3.0116 30.7876 2.74878 30.6814 2.47289 30.6296C2.197 30.5778 1.91357 30.5815 1.63913 30.6405C1.36468 30.6994 1.10472 30.8124 0.874416 30.9729C0.644111 31.1334 0.448074 31.3381 0.297741 31.5752C0.147408 31.8122 0.0457904 32.0769 -0.00118195 32.3536C-0.0481543 32.6303 -0.0395418 32.9137 0.0241543 33.1871C0.0878504 33.4604 0.205355 33.7184 0.36981 33.9459C0.534265 34.1734 0.742376 34.3658 0.982004 34.512L78.064 82.436C78.3837 82.6345 78.751 82.7431 79.1272 82.7505C79.5035 82.7579 79.8747 82.6638 80.202 82.478L118.248 60.91C118.733 60.6315 119.087 60.1722 119.233 59.6328C119.379 59.0934 119.305 58.5181 119.028 58.033V58.033Z" fill="#00B1E3"/>
<path d="M118.578 68.164C118.31 67.8291 117.946 67.5842 117.535 67.4623C117.124 67.3403 116.685 67.3472 116.278 67.482L79.216 88.482L3.246 41.151C3.0116 40.9966 2.74878 40.8904 2.47289 40.8386C2.197 40.7868 1.91357 40.7905 1.63913 40.8495C1.36468 40.9084 1.10472 41.0214 0.874416 41.1819C0.644111 41.3424 0.448074 41.5471 0.297741 41.7842C0.147408 42.0212 0.0457904 42.2858 -0.00118195 42.5626C-0.0481543 42.8393 -0.0395418 43.1227 0.0241543 43.396C0.0878504 43.6694 0.205355 43.9274 0.36981 44.1549C0.534265 44.3824 0.742376 44.5748 0.982004 44.721L78.064 92.687C78.3837 92.8855 78.751 92.9941 79.1272 93.0015C79.5035 93.0089 79.8747 92.9147 80.202 92.729L118.248 71.12C118.464 70.9479 118.644 70.7348 118.778 70.493C118.912 70.2512 118.996 69.9853 119.027 69.7107C119.058 69.4361 119.034 69.1581 118.957 68.8927C118.88 68.6273 118.752 68.3797 118.579 68.164H118.578Z" fill="#00B1E3"/>
<path d="M71.72 24.986C71.5479 24.771 71.3351 24.5921 71.0937 24.4595C70.8524 24.3269 70.5872 24.2432 70.3135 24.2132C70.0398 24.1832 69.7628 24.2075 69.4985 24.2847C69.2341 24.3619 68.9876 24.4904 68.773 24.663C68.7162 24.7092 68.6618 24.7583 68.61 24.81L66.367 26.91C65.6656 26.2786 64.8743 25.7549 64.019 25.356C62.9023 24.8291 61.6605 24.6254 60.434 24.768C59.3513 24.9025 58.3355 25.364 57.522 26.091C56.678 26.802 56.119 27.7938 55.948 28.884C55.8013 30.0296 55.9232 31.1936 56.304 32.284C56.6155 33.1865 56.9794 34.07 57.394 34.93L53.201 38.688C53.1516 38.5445 53.1105 38.3983 53.078 38.25C52.9197 37.2377 53.0283 36.2015 53.393 35.244C53.5648 34.7929 53.6637 34.3172 53.686 33.835C53.6673 33.368 53.4726 32.9254 53.141 32.596C52.9577 32.3729 52.731 32.1893 52.4747 32.0563C52.2184 31.9232 51.9378 31.8435 51.6499 31.8219C51.3619 31.8003 51.0726 31.8373 50.7993 31.9307C50.5261 32.024 50.2746 32.1718 50.06 32.365C49.3598 33.0327 48.8961 33.9103 48.739 34.865C48.5321 36.1223 48.6618 37.4121 49.115 38.603C49.4278 39.4994 49.8579 40.3505 50.394 41.134L47.983 43.234C47.6624 43.5168 47.4357 43.8906 47.3332 44.3057C47.2307 44.7207 47.2574 45.1571 47.4096 45.5566C47.5618 45.9561 47.8322 46.2996 48.1849 46.5413C48.5375 46.783 48.9555 46.9112 49.383 46.909L49.341 46.972C49.8595 46.9776 50.3616 46.7905 50.75 46.447L53.119 44.347C53.9063 45.0888 54.7875 45.7242 55.74 46.237C56.9193 46.9061 58.2835 47.1757 59.6286 47.0053C60.9738 46.835 62.2277 46.2339 63.203 45.292C63.9089 44.6774 64.4021 43.8551 64.612 42.943C64.8175 41.9128 64.7816 40.849 64.507 39.835C64.1306 38.4363 63.5834 37.0891 62.878 35.824V35.698L66.354 32.569C66.4557 33.1385 66.4557 33.7215 66.354 34.291C66.2281 34.9274 66.1691 35.5753 66.178 36.224C66.2008 36.7353 66.4095 37.2207 66.765 37.589C67.1607 38.0971 67.7405 38.429 68.379 38.513C68.6575 38.5285 68.9364 38.4882 69.1991 38.3944C69.4618 38.3007 69.7032 38.1553 69.909 37.967C70.3569 37.5416 70.6699 36.9939 70.809 36.392C70.9671 35.623 70.9671 34.83 70.809 34.061C70.6331 33.0664 70.2985 32.1064 69.818 31.218C69.6015 30.8136 69.3635 30.421 69.105 30.042L71.39 27.942C71.6061 27.7698 71.7861 27.5567 71.9197 27.3148C72.0533 27.073 72.1379 26.8071 72.1685 26.5325C72.1992 26.2579 72.1753 25.9799 72.0984 25.7146C72.0214 25.4492 71.8928 25.2016 71.72 24.986ZM58.841 42.071C58.5718 42.2732 58.2578 42.4075 57.9257 42.4625C57.5935 42.5175 57.253 42.4916 56.933 42.387C56.5144 42.2809 56.1172 42.1033 55.759 41.862L59.302 38.776C59.4544 39.1652 59.5735 39.5666 59.658 39.976C59.7199 40.3663 59.6769 40.766 59.5333 41.1342C59.3898 41.5024 59.1508 41.8257 58.841 42.071V42.071ZM60.916 31.781C60.8181 31.4597 60.7551 31.1288 60.728 30.794C60.6797 30.5132 60.7045 30.2247 60.7999 29.9562C60.8954 29.6877 61.0583 29.4483 61.273 29.261C61.5161 29.0553 61.8094 28.9178 62.123 28.8624C62.4365 28.8071 62.7592 28.8359 63.058 28.946C63.2686 29.0183 63.4721 29.1097 63.666 29.219L60.916 31.781Z" fill="#00B1E3"/>
</svg>
